<svg width="382" height="360" viewBox="0 0 382 360" fill="none" xmlns="http://www.w3.org/2000/svg">
<g filter="url(#filter0_d_533_194)">
<rect x="25" y="21" width="332" height="310" fill="white"/>
</g>
<path d="M53.7784 54H49.1378V40.9091H53.8168C55.1335 40.9091 56.267 41.1712 57.2173 41.6953C58.1676 42.2152 58.8984 42.9631 59.4098 43.9389C59.9254 44.9148 60.1832 46.0824 60.1832 47.4418C60.1832 48.8054 59.9254 49.9773 59.4098 50.9574C58.8984 51.9375 58.1634 52.6896 57.2045 53.2138C56.25 53.7379 55.108 54 53.7784 54ZM51.9055 51.6286H53.6634C54.4815 51.6286 55.1697 51.4837 55.728 51.1939C56.2905 50.8999 56.7124 50.446 56.9936 49.8324C57.2791 49.2145 57.4219 48.4176 57.4219 47.4418C57.4219 46.4744 57.2791 45.6839 56.9936 45.0703C56.7124 44.4567 56.2926 44.005 55.7344 43.7152C55.1761 43.4254 54.4879 43.2805 53.6697 43.2805H51.9055V51.6286ZM64.6761 54.1854C64.0496 54.1854 63.4914 54.0767 63.0014 53.8594C62.5113 53.6378 62.1235 53.3118 61.838 52.8814C61.5567 52.4467 61.4161 51.9055 61.4161 51.2578C61.4161 50.7124 61.5163 50.2543 61.7166 49.8835C61.9168 49.5128 62.1896 49.2145 62.5347 48.9886C62.8799 48.7628 63.2719 48.5923 63.7109 48.4773C64.154 48.3622 64.6185 48.2812 65.1043 48.2344C65.6754 48.1747 66.1356 48.1193 66.485 48.0682C66.8344 48.0128 67.088 47.9318 67.2457 47.8253C67.4033 47.7187 67.4822 47.5611 67.4822 47.3523V47.3139C67.4822 46.9091 67.3543 46.5959 67.0987 46.3743C66.8472 46.1527 66.4893 46.0419 66.0248 46.0419C65.5347 46.0419 65.1448 46.1506 64.855 46.3679C64.5653 46.581 64.3735 46.8494 64.2798 47.1733L61.7613 46.9688C61.8891 46.3722 62.1406 45.8565 62.5156 45.4219C62.8906 44.983 63.3742 44.6463 63.9666 44.4119C64.5631 44.1733 65.2535 44.054 66.0376 44.054C66.583 44.054 67.105 44.1179 67.6036 44.2457C68.1065 44.3736 68.5518 44.5717 68.9396 44.8402C69.3316 45.1087 69.6406 45.4538 69.8664 45.8757C70.0923 46.2933 70.2052 46.794 70.2052 47.3778V54H67.6228V52.6385H67.5461C67.3884 52.9453 67.1775 53.2159 66.9133 53.4503C66.6491 53.6804 66.3316 53.8615 65.9609 53.9936C65.5901 54.1214 65.1619 54.1854 64.6761 54.1854ZM65.4559 52.3061C65.8565 52.3061 66.2102 52.2273 66.517 52.0696C66.8238 51.9077 67.0646 51.6903 67.2393 51.4176C67.414 51.1449 67.5014 50.8359 67.5014 50.4908V49.4489C67.4161 49.5043 67.2989 49.5554 67.1498 49.6023C67.0049 49.6449 66.8408 49.6854 66.6576 49.7237C66.4744 49.7578 66.2911 49.7898 66.1079 49.8196C65.9246 49.8452 65.7585 49.8686 65.6093 49.8899C65.2897 49.9368 65.0106 50.0114 64.7719 50.1136C64.5333 50.2159 64.3479 50.3544 64.2158 50.5291C64.0837 50.6996 64.0177 50.9126 64.0177 51.1683C64.0177 51.5391 64.1519 51.8224 64.4204 52.0185C64.6931 52.2102 65.0383 52.3061 65.4559 52.3061ZM77.2341 44.1818V46.2273H71.3214V44.1818H77.2341ZM72.6637 41.8295H75.3868V50.983C75.3868 51.2344 75.4251 51.4304 75.5018 51.571C75.5785 51.7074 75.6851 51.8033 75.8214 51.8587C75.962 51.9141 76.124 51.9418 76.3072 51.9418C76.4351 51.9418 76.5629 51.9311 76.6907 51.9098C76.8186 51.8842 76.9166 51.8651 76.9848 51.8523L77.413 53.8786C77.2767 53.9212 77.0849 53.9702 76.8378 54.0256C76.5906 54.0852 76.2902 54.1214 75.9365 54.1342C75.2802 54.1598 74.7049 54.0724 74.2106 53.8722C73.7206 53.6719 73.3392 53.3608 73.0664 52.9389C72.7937 52.517 72.6595 51.9844 72.6637 51.3409V41.8295ZM81.5016 54.1854C80.8751 54.1854 80.3169 54.0767 79.8269 53.8594C79.3368 53.6378 78.949 53.3118 78.6635 52.8814C78.3822 52.4467 78.2416 51.9055 78.2416 51.2578C78.2416 50.7124 78.3418 50.2543 78.5421 49.8835C78.7423 49.5128 79.0151 49.2145 79.3602 48.9886C79.7054 48.7628 80.0974 48.5923 80.5364 48.4773C80.9796 48.3622 81.444 48.2812 81.9298 48.2344C82.5009 48.1747 82.9611 48.1193 83.3105 48.0682C83.6599 48.0128 83.9135 47.9318 84.0712 47.8253C84.2288 47.7187 84.3077 47.5611 84.3077 47.3523V47.3139C84.3077 46.9091 84.1798 46.5959 83.9242 46.3743C83.6727 46.1527 83.3148 46.0419 82.8503 46.0419C82.3602 46.0419 81.9703 46.1506 81.6805 46.3679C81.3908 46.581 81.199 46.8494 81.1053 47.1733L78.5868 46.9688C78.7146 46.3722 78.9661 45.8565 79.3411 45.4219C79.7161 44.983 80.1997 44.6463 80.7921 44.4119C81.3886 44.1733 82.079 44.054 82.8631 44.054C83.4085 44.054 83.9305 44.1179 84.4291 44.2457C84.932 44.3736 85.3773 44.5717 85.7651 44.8402C86.1571 45.1087 86.4661 45.4538 86.6919 45.8757C86.9178 46.2933 87.0307 46.794 87.0307 47.3778V54H84.4483V52.6385H84.3716C84.2139 52.9453 84.003 53.2159 83.7388 53.4503C83.4746 53.6804 83.1571 53.8615 82.7864 53.9936C82.4156 54.1214 81.9874 54.1854 81.5016 54.1854ZM82.2814 52.3061C82.682 52.3061 83.0357 52.2273 83.3425 52.0696C83.6493 51.9077 83.8901 51.6903 84.0648 51.4176C84.2395 51.1449 84.3269 50.8359 84.3269 50.4908V49.4489C84.2416 49.5043 84.1244 49.5554 83.9753 49.6023C83.8304 49.6449 83.6663 49.6854 83.4831 49.7237C83.2999 49.7578 83.1166 49.7898 82.9334 49.8196C82.7501 49.8452 82.584 49.8686 82.4348 49.8899C82.1152 49.9368 81.8361 50.0114 81.5974 50.1136C81.3588 50.2159 81.1734 50.3544 81.0413 50.5291C80.9092 50.6996 80.8432 50.9126 80.8432 51.1683C80.8432 51.5391 80.9774 51.8224 81.2459 52.0185C81.5186 52.2102 81.8638 52.3061 82.2814 52.3061ZM92.2498 43.1911V40.9091H103.001V43.1911H98.9934V54H96.2576V43.1911H92.2498ZM107.465 54.1918C106.455 54.1918 105.586 53.9872 104.857 53.5781C104.133 53.1648 103.575 52.581 103.183 51.8267C102.791 51.0682 102.595 50.1712 102.595 49.1357C102.595 48.1257 102.791 47.2393 103.183 46.4766C103.575 45.7138 104.127 45.1193 104.838 44.6932C105.554 44.267 106.394 44.054 107.357 44.054C108.004 44.054 108.607 44.1584 109.166 44.3672C109.728 44.5717 110.218 44.8807 110.636 45.294C111.058 45.7074 111.386 46.2273 111.62 46.8537C111.855 47.4759 111.972 48.2045 111.972 49.0398V49.7876H103.681V48.1001H109.408C109.408 47.7081 109.323 47.3608 109.153 47.0582C108.982 46.7557 108.746 46.5192 108.443 46.3487C108.145 46.174 107.798 46.0866 107.401 46.0866C106.988 46.0866 106.622 46.1825 106.302 46.3743C105.987 46.5618 105.739 46.8153 105.56 47.1349C105.382 47.4503 105.29 47.8018 105.286 48.1896V49.794C105.286 50.2798 105.375 50.6996 105.554 51.0533C105.737 51.407 105.995 51.6797 106.328 51.8714C106.66 52.0632 107.054 52.1591 107.51 52.1591C107.813 52.1591 108.09 52.1165 108.341 52.0312C108.592 51.946 108.808 51.8182 108.987 51.6477C109.166 51.4773 109.302 51.2685 109.396 51.0213L111.914 51.1875C111.786 51.7926 111.524 52.321 111.128 52.7727C110.736 53.2202 110.229 53.5696 109.607 53.821C108.989 54.0682 108.275 54.1918 107.465 54.1918ZM116.166 48.3239V54H113.443V44.1818H116.038V45.9141H116.153C116.37 45.343 116.735 44.8913 117.246 44.5589C117.757 44.2223 118.377 44.054 119.106 44.054C119.788 44.054 120.382 44.2031 120.889 44.5014C121.397 44.7997 121.791 45.2259 122.072 45.7798C122.353 46.3295 122.494 46.9858 122.494 47.7486V54H119.771V48.2344C119.775 47.6335 119.622 47.1648 119.311 46.8281C119 46.4872 118.571 46.3168 118.026 46.3168C117.659 46.3168 117.335 46.3956 117.054 46.5533C116.777 46.7109 116.56 46.9411 116.402 47.2436C116.249 47.5419 116.17 47.902 116.166 48.3239ZM127.134 54.1854C126.507 54.1854 125.949 54.0767 125.459 53.8594C124.969 53.6378 124.581 53.3118 124.296 52.8814C124.014 52.4467 123.874 51.9055 123.874 51.2578C123.874 50.7124 123.974 50.2543 124.174 49.8835C124.374 49.5128 124.647 49.2145 124.992 48.9886C125.338 48.7628 125.73 48.5923 126.168 48.4773C126.612 48.3622 127.076 48.2812 127.562 48.2344C128.133 48.1747 128.593 48.1193 128.943 48.0682C129.292 48.0128 129.546 47.9318 129.703 47.8253C129.861 47.7187 129.94 47.5611 129.94 47.3523V47.3139C129.94 46.9091 129.812 46.5959 129.556 46.3743C129.305 46.1527 128.947 46.0419 128.482 46.0419C127.992 46.0419 127.602 46.1506 127.313 46.3679C127.023 46.581 126.831 46.8494 126.737 47.1733L124.219 46.9688C124.347 46.3722 124.598 45.8565 124.973 45.4219C125.348 44.983 125.832 44.6463 126.424 44.4119C127.021 44.1733 127.711 44.054 128.495 44.054C129.041 44.054 129.563 44.1179 130.061 44.2457C130.564 44.3736 131.009 44.5717 131.397 44.8402C131.789 45.1087 132.098 45.4538 132.324 45.8757C132.55 46.2933 132.663 46.794 132.663 47.3778V54H130.08V52.6385H130.004C129.846 52.9453 129.635 53.2159 129.371 53.4503C129.107 53.6804 128.789 53.8615 128.418 53.9936C128.048 54.1214 127.619 54.1854 127.134 54.1854ZM127.914 52.3061C128.314 52.3061 128.668 52.2273 128.975 52.0696C129.281 51.9077 129.522 51.6903 129.697 51.4176C129.872 51.1449 129.959 50.8359 129.959 50.4908V49.4489C129.874 49.5043 129.757 49.5554 129.607 49.6023C129.463 49.6449 129.298 49.6854 129.115 49.7237C128.932 49.7578 128.749 49.7898 128.565 49.8196C128.382 49.8452 128.216 49.8686 128.067 49.8899C127.747 49.9368 127.468 50.0114 127.23 50.1136C126.991 50.2159 126.806 50.3544 126.673 50.5291C126.541 50.6996 126.475 50.9126 126.475 51.1683C126.475 51.5391 126.61 51.8224 126.878 52.0185C127.151 52.2102 127.496 52.3061 127.914 52.3061ZM138.893 57.8864C138.011 57.8864 137.254 57.7649 136.623 57.522C135.997 57.2834 135.498 56.9574 135.128 56.544C134.757 56.1307 134.516 55.6662 134.405 55.1506L136.924 54.8118C137.001 55.0078 137.122 55.1911 137.288 55.3615C137.454 55.532 137.674 55.6683 137.947 55.7706C138.224 55.8771 138.56 55.9304 138.957 55.9304C139.549 55.9304 140.037 55.7855 140.42 55.4957C140.808 55.2102 141.002 54.7308 141.002 54.0575V52.2614H140.887C140.768 52.5341 140.589 52.7919 140.35 53.0348C140.111 53.2777 139.805 53.4759 139.43 53.6293C139.055 53.7827 138.607 53.8594 138.087 53.8594C137.35 53.8594 136.679 53.6889 136.074 53.348C135.473 53.0028 134.994 52.4766 134.636 51.7692C134.282 51.0575 134.105 50.1584 134.105 49.0717C134.105 47.9595 134.286 47.0305 134.648 46.2848C135.011 45.5391 135.492 44.9808 136.093 44.6101C136.698 44.2393 137.361 44.054 138.081 44.054C138.631 44.054 139.091 44.1477 139.462 44.3352C139.832 44.5185 140.131 44.7486 140.356 45.0256C140.587 45.2983 140.763 45.5668 140.887 45.831H140.989V44.1818H143.693V54.0959C143.693 54.9311 143.489 55.63 143.079 56.1925C142.67 56.755 142.104 57.1768 141.379 57.4581C140.659 57.7436 139.83 57.8864 138.893 57.8864ZM138.95 51.8139C139.389 51.8139 139.76 51.7053 140.062 51.4879C140.369 51.2663 140.604 50.951 140.766 50.5419C140.932 50.1286 141.015 49.6342 141.015 49.0589C141.015 48.4837 140.934 47.9851 140.772 47.5632C140.61 47.1371 140.376 46.8068 140.069 46.5724C139.762 46.3381 139.389 46.2209 138.95 46.2209C138.503 46.2209 138.126 46.3423 137.819 46.5852C137.512 46.8239 137.28 47.1562 137.122 47.5824C136.964 48.0085 136.886 48.5007 136.886 49.0589C136.886 49.6257 136.964 50.1158 137.122 50.5291C137.284 50.9382 137.516 51.2557 137.819 51.4815C138.126 51.7031 138.503 51.8139 138.95 51.8139ZM148.354 54.1854C147.727 54.1854 147.169 54.0767 146.679 53.8594C146.189 53.6378 145.801 53.3118 145.516 52.8814C145.234 52.4467 145.094 51.9055 145.094 51.2578C145.094 50.7124 145.194 50.2543 145.394 49.8835C145.594 49.5128 145.867 49.2145 146.212 48.9886C146.558 48.7628 146.95 48.5923 147.389 48.4773C147.832 48.3622 148.296 48.2812 148.782 48.2344C149.353 48.1747 149.813 48.1193 150.163 48.0682C150.512 48.0128 150.766 47.9318 150.923 47.8253C151.081 47.7187 151.16 47.5611 151.16 47.3523V47.3139C151.16 46.9091 151.032 46.5959 150.776 46.3743C150.525 46.1527 150.167 46.0419 149.702 46.0419C149.212 46.0419 148.822 46.1506 148.533 46.3679C148.243 46.581 148.051 46.8494 147.957 47.1733L145.439 46.9688C145.567 46.3722 145.818 45.8565 146.193 45.4219C146.568 44.983 147.052 44.6463 147.644 44.4119C148.241 44.1733 148.931 44.054 149.715 44.054C150.261 44.054 150.783 44.1179 151.281 44.2457C151.784 44.3736 152.229 44.5717 152.617 44.8402C153.009 45.1087 153.318 45.4538 153.544 45.8757C153.77 46.2933 153.883 46.794 153.883 47.3778V54H151.3V52.6385H151.224C151.066 52.9453 150.855 53.2159 150.591 53.4503C150.327 53.6804 150.009 53.8615 149.639 53.9936C149.268 54.1214 148.84 54.1854 148.354 54.1854ZM149.134 52.3061C149.534 52.3061 149.888 52.2273 150.195 52.0696C150.501 51.9077 150.742 51.6903 150.917 51.4176C151.092 51.1449 151.179 50.8359 151.179 50.4908V49.4489C151.094 49.5043 150.977 49.5554 150.827 49.6023C150.683 49.6449 150.518 49.6854 150.335 49.7237C150.152 49.7578 149.969 49.7898 149.786 49.8196C149.602 49.8452 149.436 49.8686 149.287 49.8899C148.967 49.9368 148.688 50.0114 148.45 50.1136C148.211 50.2159 148.026 50.3544 147.893 50.5291C147.761 50.6996 147.695 50.9126 147.695 51.1683C147.695 51.5391 147.83 51.8224 148.098 52.0185C148.371 52.2102 148.716 52.3061 149.134 52.3061ZM159.601 54V40.9091H164.765C165.758 40.9091 166.604 41.0987 167.303 41.478C168.002 41.853 168.535 42.375 168.901 43.044C169.272 43.7088 169.457 44.4759 169.457 45.3452C169.457 46.2145 169.27 46.9815 168.895 47.6463C168.52 48.3111 167.976 48.8288 167.265 49.1996C166.557 49.5703 165.701 49.7557 164.695 49.7557H161.403V47.5376H164.248C164.78 47.5376 165.219 47.446 165.564 47.2628C165.914 47.0753 166.174 46.8175 166.344 46.4893C166.519 46.157 166.606 45.7756 166.606 45.3452C166.606 44.9105 166.519 44.5312 166.344 44.2074C166.174 43.8793 165.914 43.6257 165.564 43.4467C165.215 43.2635 164.772 43.1719 164.235 43.1719H162.368V54H159.601ZM175.214 54.1918C174.204 54.1918 173.335 53.9872 172.606 53.5781C171.882 53.1648 171.323 52.581 170.931 51.8267C170.539 51.0682 170.343 50.1712 170.343 49.1357C170.343 48.1257 170.539 47.2393 170.931 46.4766C171.323 45.7138 171.875 45.1193 172.587 44.6932C173.303 44.267 174.142 44.054 175.105 44.054C175.753 44.054 176.356 44.1584 176.914 44.3672C177.477 44.5717 177.967 44.8807 178.384 45.294C178.806 45.7074 179.134 46.2273 179.369 46.8537C179.603 47.4759 179.72 48.2045 179.72 49.0398V49.7876H171.43V48.1001H177.157C177.157 47.7081 177.072 47.3608 176.901 47.0582C176.731 46.7557 176.494 46.5192 176.192 46.3487C175.894 46.174 175.546 46.0866 175.15 46.0866C174.737 46.0866 174.37 46.1825 174.051 46.3743C173.735 46.5618 173.488 46.8153 173.309 47.1349C173.13 47.4503 173.039 47.8018 173.034 48.1896V49.794C173.034 50.2798 173.124 50.6996 173.303 51.0533C173.486 51.407 173.744 51.6797 174.076 51.8714C174.409 52.0632 174.803 52.1591 175.259 52.1591C175.561 52.1591 175.838 52.1165 176.09 52.0312C176.341 51.946 176.556 51.8182 176.735 51.6477C176.914 51.4773 177.051 51.2685 177.144 51.0213L179.663 51.1875C179.535 51.7926 179.273 52.321 178.877 52.7727C178.485 53.2202 177.977 53.5696 177.355 53.821C176.737 54.0682 176.024 54.1918 175.214 54.1918ZM183.914 48.3239V54H181.191V44.1818H183.786V45.9141H183.902C184.119 45.343 184.483 44.8913 184.995 44.5589C185.506 44.2223 186.126 44.054 186.855 44.054C187.536 44.054 188.131 44.2031 188.638 44.5014C189.145 44.7997 189.539 45.2259 189.821 45.7798C190.102 46.3295 190.242 46.9858 190.242 47.7486V54H187.519V48.2344C187.524 47.6335 187.37 47.1648 187.059 46.8281C186.748 46.4872 186.32 46.3168 185.774 46.3168C185.408 46.3168 185.084 46.3956 184.803 46.5533C184.526 46.7109 184.309 46.9411 184.151 47.2436C183.997 47.5419 183.919 47.902 183.914 48.3239ZM195.7 54.1598C194.955 54.1598 194.279 53.968 193.674 53.5845C193.073 53.1967 192.596 52.6278 192.242 51.8778C191.893 51.1236 191.718 50.1989 191.718 49.1037C191.718 47.9787 191.899 47.0433 192.262 46.2976C192.624 45.5476 193.105 44.9872 193.706 44.6165C194.311 44.2415 194.974 44.054 195.694 44.054C196.244 44.054 196.702 44.1477 197.068 44.3352C197.439 44.5185 197.737 44.7486 197.963 45.0256C198.193 45.2983 198.368 45.5668 198.487 45.831H198.571V40.9091H201.287V54H198.602V52.4276H198.487C198.36 52.7003 198.178 52.9709 197.944 53.2393C197.714 53.5036 197.414 53.723 197.043 53.8977C196.676 54.0724 196.229 54.1598 195.7 54.1598ZM196.563 51.9929C197.002 51.9929 197.373 51.8736 197.676 51.6349C197.982 51.392 198.217 51.0533 198.379 50.6186C198.545 50.1839 198.628 49.6747 198.628 49.0909C198.628 48.5071 198.547 48 198.385 47.5696C198.223 47.1392 197.989 46.8068 197.682 46.5724C197.375 46.3381 197.002 46.2209 196.563 46.2209C196.116 46.2209 195.739 46.3423 195.432 46.5852C195.125 46.8281 194.893 47.1648 194.735 47.5952C194.578 48.0256 194.499 48.5241 194.499 49.0909C194.499 49.6619 194.578 50.1669 194.735 50.6058C194.897 51.0405 195.129 51.3814 195.432 51.6286C195.739 51.8714 196.116 51.9929 196.563 51.9929ZM203.22 54V44.1818H205.943V54H203.22ZM204.588 42.9162C204.183 42.9162 203.836 42.782 203.546 42.5135C203.26 42.2408 203.118 41.9148 203.118 41.5355C203.118 41.1605 203.26 40.8388 203.546 40.5703C203.836 40.2976 204.183 40.1612 204.588 40.1612C204.993 40.1612 205.338 40.2976 205.623 40.5703C205.913 40.8388 206.058 41.1605 206.058 41.5355C206.058 41.9148 205.913 42.2408 205.623 42.5135C205.338 42.782 204.993 42.9162 204.588 42.9162ZM211.436 54.1598C210.69 54.1598 210.015 53.968 209.41 53.5845C208.809 53.1967 208.332 52.6278 207.978 51.8778C207.629 51.1236 207.454 50.1989 207.454 49.1037C207.454 47.9787 207.635 47.0433 207.997 46.2976C208.359 45.5476 208.841 44.9872 209.442 44.6165C210.047 44.2415 210.71 44.054 211.43 44.054C211.979 44.054 212.438 44.1477 212.804 44.3352C213.175 44.5185 213.473 44.7486 213.699 45.0256C213.929 45.2983 214.104 45.5668 214.223 45.831H214.306V40.9091H217.023V54H214.338V52.4276H214.223C214.095 52.7003 213.914 52.9709 213.68 53.2393C213.45 53.5036 213.149 53.723 212.778 53.8977C212.412 54.0724 211.965 54.1598 211.436 54.1598ZM212.299 51.9929C212.738 51.9929 213.109 51.8736 213.411 51.6349C213.718 51.392 213.952 51.0533 214.114 50.6186C214.281 50.1839 214.364 49.6747 214.364 49.0909C214.364 48.5071 214.283 48 214.121 47.5696C213.959 47.1392 213.724 46.8068 213.418 46.5724C213.111 46.3381 212.738 46.2209 212.299 46.2209C211.852 46.2209 211.474 46.3423 211.168 46.5852C210.861 46.8281 210.629 47.1648 210.471 47.5952C210.313 48.0256 210.234 48.5241 210.234 49.0909C210.234 49.6619 210.313 50.1669 210.471 50.6058C210.633 51.0405 210.865 51.3814 211.168 51.6286C211.474 51.8714 211.852 51.9929 212.299 51.9929ZM218.956 54V44.1818H221.679V54H218.956ZM220.324 42.9162C219.919 42.9162 219.571 42.782 219.282 42.5135C218.996 42.2408 218.853 41.9148 218.853 41.5355C218.853 41.1605 218.996 40.8388 219.282 40.5703C219.571 40.2976 219.919 40.1612 220.324 40.1612C220.728 40.1612 221.074 40.2976 221.359 40.5703C221.649 40.8388 221.794 41.1605 221.794 41.5355C221.794 41.9148 221.649 42.2408 221.359 42.5135C221.074 42.782 220.728 42.9162 220.324 42.9162ZM226.021 51.1747L226.028 47.9084H226.424L229.569 44.1818H232.695L228.469 49.1165H227.824L226.021 51.1747ZM223.554 54V40.9091H226.277V54H223.554ZM229.69 54L226.801 49.7237L228.616 47.7997L232.88 54H229.69Z" fill="#29456A"/>
<circle cx="191" cy="163" r="80" fill="#36A2EB"/>
<path d="M191 83C209.508 83 227.444 89.4175 241.751 101.159C256.059 112.901 265.852 129.24 269.463 147.393C273.074 165.546 270.279 184.389 261.554 200.712C252.829 217.035 238.714 229.828 221.615 236.91C204.515 243.993 185.489 244.928 167.777 239.555C150.066 234.183 134.765 222.835 124.482 207.446C114.2 192.056 109.571 173.578 111.385 155.159C113.199 136.739 121.344 119.519 134.431 106.431L191 163L191 83Z" fill="#FF6384" stroke="white" stroke-width="1.5"/>
<rect x="109" y="272" width="15" height="15" fill="#F36E6E"/>
<path d="M135.233 285V274.818H136.466V283.906H141.199V285H135.233ZM144.958 285.179C144.474 285.179 144.035 285.088 143.641 284.906C143.246 284.72 142.933 284.453 142.701 284.105C142.469 283.754 142.353 283.33 142.353 282.832C142.353 282.395 142.439 282.04 142.611 281.768C142.784 281.493 143.014 281.278 143.302 281.122C143.591 280.966 143.909 280.85 144.257 280.774C144.608 280.695 144.961 280.632 145.316 280.585C145.78 280.526 146.156 280.481 146.445 280.451C146.736 280.418 146.948 280.363 147.081 280.287C147.217 280.211 147.285 280.078 147.285 279.889V279.849C147.285 279.359 147.15 278.978 146.882 278.706C146.617 278.434 146.214 278.298 145.674 278.298C145.114 278.298 144.675 278.421 144.356 278.666C144.038 278.911 143.815 279.173 143.685 279.452L142.572 279.054C142.771 278.59 143.036 278.229 143.367 277.97C143.702 277.708 144.066 277.526 144.461 277.423C144.859 277.317 145.25 277.264 145.634 277.264C145.879 277.264 146.161 277.294 146.479 277.354C146.801 277.41 147.111 277.528 147.409 277.707C147.711 277.886 147.961 278.156 148.16 278.517C148.359 278.878 148.458 279.362 148.458 279.969V285H147.285V283.966H147.225C147.146 284.132 147.013 284.309 146.827 284.498C146.642 284.687 146.395 284.848 146.087 284.98C145.778 285.113 145.402 285.179 144.958 285.179ZM145.137 284.125C145.601 284.125 145.992 284.034 146.31 283.852C146.632 283.669 146.874 283.434 147.036 283.146C147.202 282.857 147.285 282.554 147.285 282.236V281.162C147.235 281.222 147.126 281.276 146.957 281.326C146.791 281.372 146.599 281.414 146.38 281.45C146.164 281.483 145.954 281.513 145.749 281.54C145.546 281.563 145.382 281.583 145.256 281.599C144.951 281.639 144.666 281.704 144.401 281.793C144.139 281.879 143.927 282.01 143.765 282.186C143.606 282.358 143.526 282.594 143.526 282.892C143.526 283.3 143.677 283.608 143.979 283.817C144.284 284.022 144.67 284.125 145.137 284.125ZM151.455 282.216L151.435 280.764H151.674L155.015 277.364H156.467L152.907 280.963H152.808L151.455 282.216ZM150.362 285V274.818H151.535V285H150.362ZM155.214 285L152.231 281.222L153.066 280.406L156.705 285H155.214ZM157.739 285V277.364H158.912V285H157.739ZM158.335 276.091C158.107 276.091 157.909 276.013 157.744 275.857C157.581 275.701 157.5 275.514 157.5 275.295C157.5 275.077 157.581 274.889 157.744 274.734C157.909 274.578 158.107 274.5 158.335 274.5C158.564 274.5 158.76 274.578 158.922 274.734C159.088 274.889 159.171 275.077 159.171 275.295C159.171 275.514 159.088 275.701 158.922 275.857C158.76 276.013 158.564 276.091 158.335 276.091ZM165.198 280.088V281.182H160.743V280.088H165.198ZM168.198 274.818V285H167.024V274.818H168.198ZM172.356 285.179C171.872 285.179 171.433 285.088 171.038 284.906C170.644 284.72 170.331 284.453 170.099 284.105C169.867 283.754 169.751 283.33 169.751 282.832C169.751 282.395 169.837 282.04 170.009 281.768C170.182 281.493 170.412 281.278 170.7 281.122C170.989 280.966 171.307 280.85 171.655 280.774C172.006 280.695 172.359 280.632 172.714 280.585C173.178 280.526 173.554 280.481 173.842 280.451C174.134 280.418 174.346 280.363 174.479 280.287C174.615 280.211 174.683 280.078 174.683 279.889V279.849C174.683 279.359 174.548 278.978 174.28 278.706C174.015 278.434 173.612 278.298 173.072 278.298C172.512 278.298 172.073 278.421 171.754 278.666C171.436 278.911 171.212 279.173 171.083 279.452L169.97 279.054C170.168 278.59 170.434 278.229 170.765 277.97C171.1 277.708 171.464 277.526 171.859 277.423C172.256 277.317 172.648 277.264 173.032 277.264C173.277 277.264 173.559 277.294 173.877 277.354C174.199 277.41 174.509 277.528 174.807 277.707C175.109 277.886 175.359 278.156 175.558 278.517C175.756 278.878 175.856 279.362 175.856 279.969V285H174.683V283.966H174.623C174.543 284.132 174.411 284.309 174.225 284.498C174.04 284.687 173.793 284.848 173.484 284.98C173.176 285.113 172.8 285.179 172.356 285.179ZM172.535 284.125C172.999 284.125 173.39 284.034 173.708 283.852C174.03 283.669 174.272 283.434 174.434 283.146C174.6 282.857 174.683 282.554 174.683 282.236V281.162C174.633 281.222 174.524 281.276 174.354 281.326C174.189 281.372 173.997 281.414 173.778 281.45C173.562 281.483 173.352 281.513 173.146 281.54C172.944 281.563 172.78 281.583 172.654 281.599C172.349 281.639 172.064 281.704 171.799 281.793C171.537 281.879 171.325 282.01 171.163 282.186C171.004 282.358 170.924 282.594 170.924 282.892C170.924 283.3 171.075 283.608 171.377 283.817C171.681 284.022 172.068 284.125 172.535 284.125ZM178.853 282.216L178.833 280.764H179.072L182.413 277.364H183.865L180.305 280.963H180.205L178.853 282.216ZM177.759 285V274.818H178.933V285H177.759ZM182.612 285L179.629 281.222L180.464 280.406L184.103 285H182.612ZM185.137 285V277.364H186.31V285H185.137ZM185.733 276.091C185.505 276.091 185.307 276.013 185.142 275.857C184.979 275.701 184.898 275.514 184.898 275.295C184.898 275.077 184.979 274.889 185.142 274.734C185.307 274.578 185.505 274.5 185.733 274.5C185.962 274.5 186.157 274.578 186.32 274.734C186.486 274.889 186.568 275.077 186.568 275.295C186.568 275.514 186.486 275.701 186.32 275.857C186.157 276.013 185.962 276.091 185.733 276.091Z" fill="#575155"/>
<path d="M241.895 284.119C241.293 284.119 240.756 284.009 240.284 283.787C239.815 283.565 239.443 283.26 239.168 282.871C238.892 282.482 238.749 282.036 238.737 281.533H240.527C240.547 281.871 240.689 282.145 240.953 282.355C241.217 282.565 241.531 282.67 241.895 282.67C242.185 282.67 242.44 282.607 242.662 282.479C242.886 282.348 243.061 282.168 243.186 281.938C243.314 281.705 243.378 281.437 243.378 281.136C243.378 280.83 243.313 280.56 243.182 280.327C243.054 280.094 242.876 279.912 242.649 279.781C242.422 279.651 242.162 279.584 241.869 279.581C241.614 279.581 241.365 279.634 241.124 279.739C240.885 279.844 240.699 279.987 240.565 280.169L238.925 279.875L239.338 275.273H244.673V276.781H240.859L240.634 278.967H240.685C240.838 278.751 241.07 278.572 241.379 278.43C241.689 278.288 242.036 278.217 242.419 278.217C242.945 278.217 243.413 278.341 243.825 278.588C244.237 278.835 244.562 279.175 244.801 279.607C245.04 280.036 245.158 280.53 245.155 281.089C245.158 281.678 245.021 282.2 244.746 282.658C244.473 283.112 244.091 283.47 243.599 283.732C243.111 283.99 242.543 284.119 241.895 284.119ZM247.035 284.111C246.753 284.111 246.512 284.011 246.31 283.812C246.111 283.611 246.012 283.369 246.012 283.088C246.012 282.81 246.111 282.571 246.31 282.372C246.512 282.173 246.753 282.074 247.035 282.074C247.307 282.074 247.546 282.173 247.751 282.372C247.955 282.571 248.057 282.81 248.057 283.088C248.057 283.276 248.009 283.447 247.912 283.604C247.819 283.757 247.695 283.881 247.542 283.974C247.388 284.065 247.219 284.111 247.035 284.111ZM252.397 284.192C251.664 284.189 251.033 284.009 250.505 283.651C249.979 283.293 249.575 282.774 249.291 282.095C249.009 281.416 248.87 280.599 248.873 279.645C248.873 278.693 249.014 277.882 249.295 277.212C249.579 276.541 249.984 276.031 250.509 275.682C251.038 275.33 251.667 275.153 252.397 275.153C253.127 275.153 253.755 275.33 254.281 275.682C254.809 276.034 255.215 276.545 255.499 277.216C255.783 277.884 255.924 278.693 255.921 279.645C255.921 280.602 255.779 281.42 255.495 282.099C255.214 282.778 254.81 283.297 254.285 283.655C253.759 284.013 253.13 284.192 252.397 284.192ZM252.397 282.662C252.897 282.662 253.296 282.411 253.594 281.908C253.893 281.405 254.041 280.651 254.038 279.645C254.038 278.983 253.969 278.432 253.833 277.991C253.7 277.551 253.509 277.22 253.262 276.999C253.018 276.777 252.729 276.666 252.397 276.666C251.9 276.666 251.502 276.915 251.204 277.412C250.906 277.909 250.755 278.653 250.752 279.645C250.752 280.315 250.819 280.875 250.952 281.324C251.089 281.77 251.281 282.105 251.528 282.33C251.775 282.551 252.065 282.662 252.397 282.662ZM260.455 284.192C259.722 284.189 259.091 284.009 258.563 283.651C258.037 283.293 257.632 282.774 257.348 282.095C257.067 281.416 256.928 280.599 256.931 279.645C256.931 278.693 257.071 277.882 257.352 277.212C257.637 276.541 258.041 276.031 258.567 275.682C259.095 275.33 259.725 275.153 260.455 275.153C261.185 275.153 261.813 275.33 262.338 275.682C262.867 276.034 263.273 276.545 263.557 277.216C263.841 277.884 263.982 278.693 263.979 279.645C263.979 280.602 263.837 281.42 263.553 282.099C263.272 282.778 262.868 283.297 262.343 283.655C261.817 284.013 261.188 284.192 260.455 284.192ZM260.455 282.662C260.955 282.662 261.354 282.411 261.652 281.908C261.951 281.405 262.098 280.651 262.095 279.645C262.095 278.983 262.027 278.432 261.891 277.991C261.757 277.551 261.567 277.22 261.32 276.999C261.076 276.777 260.787 276.666 260.455 276.666C259.958 276.666 259.56 276.915 259.262 277.412C258.963 277.909 258.813 278.653 258.81 279.645C258.81 280.315 258.877 280.875 259.01 281.324C259.147 281.77 259.338 282.105 259.585 282.33C259.833 282.551 260.122 282.662 260.455 282.662ZM268.512 284.192C267.78 284.189 267.149 284.009 266.62 283.651C266.095 283.293 265.69 282.774 265.406 282.095C265.125 281.416 264.985 280.599 264.988 279.645C264.988 278.693 265.129 277.882 265.41 277.212C265.694 276.541 266.099 276.031 266.625 275.682C267.153 275.33 267.782 275.153 268.512 275.153C269.243 275.153 269.87 275.33 270.396 275.682C270.924 276.034 271.331 276.545 271.615 277.216C271.899 277.884 272.039 278.693 272.037 279.645C272.037 280.602 271.895 281.42 271.61 282.099C271.329 282.778 270.926 283.297 270.4 283.655C269.875 284.013 269.245 284.192 268.512 284.192ZM268.512 282.662C269.012 282.662 269.412 282.411 269.71 281.908C270.008 281.405 270.156 280.651 270.153 279.645C270.153 278.983 270.085 278.432 269.949 277.991C269.815 277.551 269.625 277.22 269.378 276.999C269.133 276.777 268.845 276.666 268.512 276.666C268.015 276.666 267.618 276.915 267.319 277.412C267.021 277.909 266.87 278.653 266.868 279.645C266.868 280.315 266.934 280.875 267.068 281.324C267.204 281.77 267.396 282.105 267.643 282.33C267.89 282.551 268.18 282.662 268.512 282.662Z" fill="#575155"/>
<path d="M242.504 301.273V310H240.659V303.024H240.608L238.609 304.277V302.641L240.77 301.273H242.504ZM244.984 310.111C244.703 310.111 244.461 310.011 244.259 309.812C244.061 309.611 243.961 309.369 243.961 309.088C243.961 308.81 244.061 308.571 244.259 308.372C244.461 308.173 244.703 308.074 244.984 308.074C245.257 308.074 245.495 308.173 245.7 308.372C245.904 308.571 246.007 308.81 246.007 309.088C246.007 309.276 245.958 309.447 245.862 309.604C245.768 309.757 245.644 309.881 245.491 309.974C245.338 310.065 245.169 310.111 244.984 310.111ZM250.346 310.192C249.613 310.189 248.983 310.009 248.454 309.651C247.929 309.293 247.524 308.774 247.24 308.095C246.958 307.416 246.819 306.599 246.822 305.645C246.822 304.693 246.963 303.882 247.244 303.212C247.528 302.541 247.933 302.031 248.458 301.682C248.987 301.33 249.616 301.153 250.346 301.153C251.076 301.153 251.704 301.33 252.23 301.682C252.758 302.034 253.164 302.545 253.449 303.216C253.733 303.884 253.873 304.693 253.87 305.645C253.87 306.602 253.728 307.42 253.444 308.099C253.163 308.778 252.76 309.297 252.234 309.655C251.708 310.013 251.079 310.192 250.346 310.192ZM250.346 308.662C250.846 308.662 251.245 308.411 251.544 307.908C251.842 307.405 251.99 306.651 251.987 305.645C251.987 304.983 251.919 304.432 251.782 303.991C251.649 303.551 251.458 303.22 251.211 302.999C250.967 302.777 250.679 302.666 250.346 302.666C249.849 302.666 249.451 302.915 249.153 303.412C248.855 303.909 248.704 304.653 248.701 305.645C248.701 306.315 248.768 306.875 248.902 307.324C249.038 307.77 249.23 308.105 249.477 308.33C249.724 308.551 250.014 308.662 250.346 308.662ZM258.404 310.192C257.671 310.189 257.04 310.009 256.512 309.651C255.986 309.293 255.582 308.774 255.297 308.095C255.016 307.416 254.877 306.599 254.88 305.645C254.88 304.693 255.02 303.882 255.302 303.212C255.586 302.541 255.991 302.031 256.516 301.682C257.045 301.33 257.674 301.153 258.404 301.153C259.134 301.153 259.762 301.33 260.288 301.682C260.816 302.034 261.222 302.545 261.506 303.216C261.79 303.884 261.931 304.693 261.928 305.645C261.928 306.602 261.786 307.42 261.502 308.099C261.221 308.778 260.817 309.297 260.292 309.655C259.766 310.013 259.137 310.192 258.404 310.192ZM258.404 308.662C258.904 308.662 259.303 308.411 259.601 307.908C259.9 307.405 260.047 306.651 260.045 305.645C260.045 304.983 259.976 304.432 259.84 303.991C259.707 303.551 259.516 303.22 259.269 302.999C259.025 302.777 258.736 302.666 258.404 302.666C257.907 302.666 257.509 302.915 257.211 303.412C256.913 303.909 256.762 304.653 256.759 305.645C256.759 306.315 256.826 306.875 256.959 307.324C257.096 307.77 257.288 308.105 257.535 308.33C257.782 308.551 258.072 308.662 258.404 308.662ZM266.462 310.192C265.729 310.189 265.098 310.009 264.57 309.651C264.044 309.293 263.639 308.774 263.355 308.095C263.074 307.416 262.935 306.599 262.938 305.645C262.938 304.693 263.078 303.882 263.359 303.212C263.644 302.541 264.048 302.031 264.574 301.682C265.102 301.33 265.732 301.153 266.462 301.153C267.192 301.153 267.82 301.33 268.345 301.682C268.874 302.034 269.28 302.545 269.564 303.216C269.848 303.884 269.989 304.693 269.986 305.645C269.986 306.602 269.844 307.42 269.56 308.099C269.278 308.778 268.875 309.297 268.349 309.655C267.824 310.013 267.195 310.192 266.462 310.192ZM266.462 308.662C266.962 308.662 267.361 308.411 267.659 307.908C267.957 307.405 268.105 306.651 268.102 305.645C268.102 304.983 268.034 304.432 267.898 303.991C267.764 303.551 267.574 303.22 267.327 302.999C267.082 302.777 266.794 302.666 266.462 302.666C265.965 302.666 265.567 302.915 265.269 303.412C264.97 303.909 264.82 304.653 264.817 305.645C264.817 306.315 264.884 306.875 265.017 307.324C265.153 307.77 265.345 308.105 265.592 308.33C265.84 308.551 266.129 308.662 266.462 308.662Z" fill="#575155"/>
<rect x="109" y="298" width="15" height="15" fill="#2697FF"/>
<path d="M135.233 311V300.818H138.673C139.472 300.818 140.125 300.962 140.632 301.251C141.143 301.536 141.52 301.922 141.766 302.409C142.011 302.896 142.134 303.44 142.134 304.04C142.134 304.64 142.011 305.185 141.766 305.675C141.524 306.166 141.149 306.557 140.642 306.849C140.135 307.137 139.485 307.281 138.693 307.281H136.227V306.188H138.653C139.2 306.188 139.639 306.093 139.971 305.904C140.302 305.715 140.543 305.46 140.692 305.138C140.844 304.814 140.92 304.447 140.92 304.04C140.92 303.632 140.844 303.268 140.692 302.946C140.543 302.625 140.301 302.373 139.966 302.19C139.631 302.005 139.187 301.912 138.634 301.912H136.466V311H135.233ZM146.842 311.159C146.106 311.159 145.472 310.997 144.938 310.672C144.408 310.344 143.999 309.886 143.71 309.3C143.425 308.71 143.283 308.024 143.283 307.241C143.283 306.459 143.425 305.77 143.71 305.173C143.999 304.573 144.4 304.106 144.913 303.771C145.43 303.433 146.034 303.264 146.723 303.264C147.121 303.264 147.513 303.33 147.901 303.463C148.289 303.596 148.642 303.811 148.96 304.109C149.278 304.404 149.532 304.795 149.721 305.283C149.91 305.77 150.004 306.37 150.004 307.082V307.58H144.118V306.565H148.811C148.811 306.134 148.725 305.75 148.552 305.412C148.383 305.074 148.141 304.807 147.827 304.612C147.515 304.416 147.147 304.318 146.723 304.318C146.256 304.318 145.851 304.434 145.51 304.666C145.172 304.895 144.912 305.193 144.729 305.561C144.547 305.929 144.456 306.323 144.456 306.744V307.42C144.456 307.997 144.555 308.486 144.754 308.887C144.956 309.285 145.236 309.588 145.594 309.797C145.952 310.002 146.368 310.105 146.842 310.105C147.15 310.105 147.429 310.062 147.677 309.976C147.929 309.886 148.146 309.754 148.329 309.578C148.511 309.399 148.652 309.177 148.751 308.912L149.885 309.23C149.766 309.615 149.565 309.953 149.283 310.244C149.002 310.533 148.654 310.758 148.239 310.92C147.825 311.08 147.359 311.159 146.842 311.159ZM151.551 311V303.364H152.685V304.517H152.764C152.903 304.139 153.155 303.833 153.52 303.597C153.884 303.362 154.295 303.244 154.753 303.244C154.839 303.244 154.947 303.246 155.076 303.249C155.205 303.253 155.303 303.258 155.369 303.264V304.457C155.329 304.447 155.238 304.433 155.096 304.413C154.957 304.389 154.809 304.378 154.653 304.378C154.282 304.378 153.951 304.456 153.659 304.612C153.371 304.764 153.142 304.976 152.973 305.248C152.807 305.516 152.724 305.823 152.724 306.168V311H151.551ZM159.491 311.159C158.755 311.159 158.121 310.997 157.587 310.672C157.057 310.344 156.648 309.886 156.359 309.3C156.074 308.71 155.932 308.024 155.932 307.241C155.932 306.459 156.074 305.77 156.359 305.173C156.648 304.573 157.049 304.106 157.562 303.771C158.079 303.433 158.683 303.264 159.372 303.264C159.77 303.264 160.162 303.33 160.55 303.463C160.938 303.596 161.291 303.811 161.609 304.109C161.927 304.404 162.181 304.795 162.37 305.283C162.559 305.77 162.653 306.37 162.653 307.082V307.58H156.767V306.565H161.46C161.46 306.134 161.374 305.75 161.201 305.412C161.032 305.074 160.79 304.807 160.476 304.612C160.164 304.416 159.796 304.318 159.372 304.318C158.905 304.318 158.5 304.434 158.159 304.666C157.821 304.895 157.561 305.193 157.378 305.561C157.196 305.929 157.105 306.323 157.105 306.744V307.42C157.105 307.997 157.204 308.486 157.403 308.887C157.605 309.285 157.885 309.588 158.243 309.797C158.601 310.002 159.017 310.105 159.491 310.105C159.799 310.105 160.078 310.062 160.326 309.976C160.578 309.886 160.795 309.754 160.978 309.578C161.16 309.399 161.301 309.177 161.4 308.912L162.534 309.23C162.415 309.615 162.214 309.953 161.932 310.244C161.651 310.533 161.303 310.758 160.888 310.92C160.474 311.08 160.008 311.159 159.491 311.159ZM164.2 311V303.364H165.334V304.557H165.433C165.592 304.149 165.849 303.833 166.204 303.607C166.558 303.379 166.984 303.264 167.481 303.264C167.985 303.264 168.404 303.379 168.739 303.607C169.077 303.833 169.341 304.149 169.53 304.557H169.609C169.805 304.162 170.098 303.849 170.489 303.617C170.88 303.382 171.349 303.264 171.896 303.264C172.579 303.264 173.137 303.478 173.571 303.906C174.006 304.33 174.223 304.991 174.223 305.889V311H173.049V305.889C173.049 305.326 172.895 304.923 172.587 304.681C172.279 304.439 171.916 304.318 171.498 304.318C170.961 304.318 170.545 304.481 170.25 304.805C169.955 305.127 169.808 305.535 169.808 306.028V311H168.615V305.77C168.615 305.336 168.474 304.986 168.192 304.721C167.91 304.452 167.548 304.318 167.103 304.318C166.798 304.318 166.513 304.399 166.248 304.562C165.986 304.724 165.774 304.95 165.612 305.238C165.453 305.523 165.373 305.853 165.373 306.227V311H164.2ZM176.13 313.864V303.364H177.263V304.577H177.403C177.489 304.444 177.608 304.275 177.761 304.07C177.916 303.861 178.138 303.675 178.427 303.513C178.719 303.347 179.113 303.264 179.61 303.264C180.253 303.264 180.82 303.425 181.31 303.746C181.801 304.068 182.184 304.524 182.459 305.114C182.734 305.704 182.871 306.4 182.871 307.202C182.871 308.01 182.734 308.711 182.459 309.305C182.184 309.895 181.803 310.352 181.315 310.677C180.828 310.998 180.266 311.159 179.63 311.159C179.139 311.159 178.747 311.078 178.452 310.915C178.157 310.75 177.93 310.562 177.771 310.354C177.611 310.142 177.489 309.966 177.403 309.827H177.303V313.864H176.13ZM177.283 307.182C177.283 307.759 177.368 308.267 177.537 308.708C177.706 309.146 177.953 309.489 178.278 309.737C178.602 309.982 179 310.105 179.471 310.105C179.961 310.105 180.371 309.976 180.699 309.717C181.03 309.455 181.279 309.104 181.445 308.663C181.614 308.219 181.698 307.725 181.698 307.182C181.698 306.645 181.615 306.161 181.45 305.73C181.287 305.296 181.04 304.953 180.709 304.701C180.381 304.446 179.968 304.318 179.471 304.318C178.994 304.318 178.593 304.439 178.268 304.681C177.943 304.92 177.698 305.254 177.532 305.685C177.366 306.113 177.283 306.612 177.283 307.182ZM189.236 307.878V303.364H190.409V311H189.236V309.707H189.156C188.977 310.095 188.699 310.425 188.321 310.697C187.943 310.965 187.466 311.099 186.889 311.099C186.412 311.099 185.988 310.995 185.616 310.786C185.245 310.574 184.954 310.256 184.741 309.832C184.529 309.404 184.423 308.866 184.423 308.216V303.364H185.597V308.136C185.597 308.693 185.752 309.137 186.064 309.469C186.379 309.8 186.78 309.966 187.267 309.966C187.559 309.966 187.855 309.891 188.157 309.742C188.462 309.593 188.717 309.364 188.922 309.056C189.131 308.748 189.236 308.355 189.236 307.878ZM194.567 311.179C194.083 311.179 193.644 311.088 193.25 310.906C192.855 310.72 192.542 310.453 192.31 310.105C192.078 309.754 191.962 309.33 191.962 308.832C191.962 308.395 192.048 308.04 192.221 307.768C192.393 307.493 192.623 307.278 192.912 307.122C193.2 306.966 193.518 306.85 193.866 306.774C194.217 306.695 194.57 306.632 194.925 306.585C195.389 306.526 195.765 306.481 196.054 306.451C196.345 306.418 196.557 306.363 196.69 306.287C196.826 306.211 196.894 306.078 196.894 305.889V305.849C196.894 305.359 196.76 304.978 196.491 304.706C196.226 304.434 195.823 304.298 195.283 304.298C194.723 304.298 194.284 304.421 193.966 304.666C193.647 304.911 193.424 305.173 193.294 305.452L192.181 305.054C192.38 304.59 192.645 304.229 192.976 303.97C193.311 303.708 193.676 303.526 194.07 303.423C194.468 303.317 194.859 303.264 195.243 303.264C195.489 303.264 195.77 303.294 196.088 303.354C196.41 303.41 196.72 303.528 197.018 303.707C197.32 303.886 197.57 304.156 197.769 304.517C197.968 304.878 198.067 305.362 198.067 305.969V311H196.894V309.966H196.834C196.755 310.132 196.622 310.309 196.436 310.498C196.251 310.687 196.004 310.848 195.696 310.98C195.387 311.113 195.011 311.179 194.567 311.179ZM194.746 310.125C195.21 310.125 195.601 310.034 195.919 309.852C196.241 309.669 196.483 309.434 196.645 309.146C196.811 308.857 196.894 308.554 196.894 308.236V307.162C196.844 307.222 196.735 307.276 196.566 307.326C196.4 307.372 196.208 307.414 195.989 307.45C195.774 307.483 195.563 307.513 195.358 307.54C195.155 307.563 194.991 307.583 194.865 307.599C194.561 307.639 194.275 307.704 194.01 307.793C193.748 307.879 193.536 308.01 193.374 308.186C193.215 308.358 193.135 308.594 193.135 308.892C193.135 309.3 193.286 309.608 193.588 309.817C193.893 310.022 194.279 310.125 194.746 310.125ZM201.144 306.406V311H199.971V303.364H201.104V304.557H201.204C201.383 304.169 201.654 303.857 202.019 303.622C202.384 303.384 202.854 303.264 203.431 303.264C203.948 303.264 204.4 303.37 204.788 303.582C205.176 303.791 205.478 304.109 205.693 304.537C205.908 304.961 206.016 305.498 206.016 306.148V311H204.843V306.227C204.843 305.627 204.687 305.16 204.375 304.825C204.064 304.487 203.636 304.318 203.093 304.318C202.718 304.318 202.384 304.399 202.089 304.562C201.797 304.724 201.567 304.961 201.397 305.273C201.228 305.584 201.144 305.962 201.144 306.406Z" fill="#575155"/>
<defs>
<filter id="filter0_d_533_194" x="0" y="0" width="382" height="360" filterUnits="userSpaceOnUse" color-interpolation-filters="sRGB">
<feFlood flood-opacity="0" result="BackgroundImageFix"/>
<feColorMatrix in="SourceAlpha" type="matrix" values="0 0 0 0 0 0 0 0 0 0 0 0 0 0 0 0 0 0 127 0" result="hardAlpha"/>
<feOffset dy="4"/>
<feGaussianBlur stdDeviation="12.5"/>
<feComposite in2="hardAlpha" operator="out"/>
<feColorMatrix type="matrix" values="0 0 0 0 0 0 0 0 0 0 0 0 0 0 0 0 0 0 0.05 0"/>
<feBlend mode="normal" in2="BackgroundImageFix" result="effect1_dropShadow_533_194"/>
<feBlend mode="normal" in="SourceGraphic" in2="effect1_dropShadow_533_194" result="shape"/>
</filter>
</defs>
</svg>
